<svg width="27" height="27" viewBox="0 0 27 27" fill="none" xmlns="http://www.w3.org/2000/svg">
<path d="M13.3668 20.6057V21.5859C13.3668 23.6687 12.5314 24.5041 10.4374 24.5041H5.14674C3.53169 24.5041 2.22852 23.2009 2.22852 21.5859V16.2952C2.22852 14.2012 3.06388 13.3658 5.14674 13.3658H6.1269V17.2642C6.1269 19.1132 7.61943 20.6057 9.46838 20.6057H13.3668Z" fill="white"/>
<path d="M18.9351 15.0366V16.0056C18.9351 17.6207 17.6208 18.935 16.0058 18.935H10.7151C8.63224 18.935 7.79688 18.0996 7.79688 16.0056V10.715C7.79688 9.09993 9.10005 7.79675 10.7151 7.79675H11.6953V11.6951C11.6953 13.5441 13.1878 15.0366 15.0367 15.0366H18.9351Z" fill="white"/>
<path d="M24.5045 5.14588V10.4365C24.5045 12.5305 23.6691 13.3659 21.5751 13.3659H16.2844C14.2016 13.3659 13.3662 12.5305 13.3662 10.4365V5.14588C13.3662 3.06303 14.2016 2.22766 16.2844 2.22766H21.5751C23.6691 2.22766 24.5045 3.06303 24.5045 5.14588Z" fill="white"/>
</svg>
