<svg width="22" height="22" viewBox="0 0 22 22" fill="none" xmlns="http://www.w3.org/2000/svg">
<path d="M14.8408 1.83325H7.15918C3.82251 1.83325 1.83334 3.82242 1.83334 7.15909V14.8316C1.83334 18.1774 3.82251 20.1666 7.15918 20.1666H14.8317C18.1683 20.1666 20.1575 18.1774 20.1575 14.8408V7.15909C20.1667 3.82242 18.1775 1.83325 14.8408 1.83325ZM10.0375 16.0508C9.77168 16.3166 9.26751 16.5733 8.90084 16.6283L6.64584 16.9491C6.56334 16.9583 6.48084 16.9674 6.39834 16.9674C6.02251 16.9674 5.67418 16.8391 5.42668 16.5916C5.12418 16.2891 4.99584 15.8491 5.06918 15.3633L5.39001 13.1083C5.44501 12.7324 5.69251 12.2374 5.96751 11.9716L10.0558 7.88325C10.1292 8.07575 10.2025 8.26825 10.3033 8.48825C10.395 8.68075 10.4958 8.88242 10.6058 9.06575C10.6975 9.22159 10.7983 9.36825 10.8808 9.47825C10.9817 9.63409 11.1008 9.78075 11.1742 9.86325C11.22 9.92742 11.2567 9.97325 11.275 9.99158C11.5042 10.2666 11.77 10.5233 11.9992 10.7158C12.0633 10.7799 12.1 10.8166 12.1183 10.8258C12.2558 10.9358 12.3933 11.0458 12.5125 11.1283C12.6592 11.2383 12.8058 11.3391 12.9617 11.4216C13.145 11.5316 13.3467 11.6324 13.5483 11.7333C13.7592 11.8249 13.9517 11.9074 14.1442 11.9716L10.0375 16.0508ZM15.9225 10.1658L15.0792 11.0183C15.0242 11.0733 14.9508 11.1008 14.8775 11.1008C14.85 11.1008 14.8133 11.1008 14.795 11.0916C12.9342 10.5599 11.4492 9.07492 10.9175 7.21409C10.89 7.11325 10.9175 7.00325 10.9908 6.93909L11.8433 6.08659C13.2367 4.69325 14.5658 4.72075 15.9317 6.08659C16.6283 6.78325 16.9675 7.45242 16.9675 8.14909C16.9583 8.80909 16.6192 9.46909 15.9225 10.1658Z" fill="white"/>
</svg>
