<svg width="22" height="22" viewBox="0 0 22 22" fill="none" xmlns="http://www.w3.org/2000/svg">
<path d="M15.609 0H6.391C2.387 0 0 2.387 0 6.391V15.609C0 19.613 2.387 22 6.391 22H15.609C19.613 22 22 19.613 22 15.609V6.391C22 2.387 19.613 0 15.609 0ZM8.767 14.19L6.292 16.665C6.127 16.83 5.918 16.907 5.709 16.907C5.5 16.907 5.28 16.83 5.126 16.665L4.301 15.84C3.971 15.521 3.971 14.993 4.301 14.674C4.62 14.355 5.137 14.355 5.467 14.674L5.709 14.916L7.601 13.024C7.92 12.705 8.437 12.705 8.767 13.024C9.086 13.343 9.086 13.871 8.767 14.19ZM8.767 6.49L6.292 8.965C6.127 9.13 5.918 9.207 5.709 9.207C5.5 9.207 5.28 9.13 5.126 8.965L4.301 8.14C3.971 7.821 3.971 7.293 4.301 6.974C4.62 6.655 5.137 6.655 5.467 6.974L5.709 7.216L7.601 5.324C7.92 5.005 8.437 5.005 8.767 5.324C9.086 5.643 9.086 6.171 8.767 6.49ZM17.116 16.082H11.341C10.89 16.082 10.516 15.708 10.516 15.257C10.516 14.806 10.89 14.432 11.341 14.432H17.116C17.578 14.432 17.941 14.806 17.941 15.257C17.941 15.708 17.578 16.082 17.116 16.082ZM17.116 8.382H11.341C10.89 8.382 10.516 8.008 10.516 7.557C10.516 7.106 10.89 6.732 11.341 6.732H17.116C17.578 6.732 17.941 7.106 17.941 7.557C17.941 8.008 17.578 8.382 17.116 8.382Z" fill="white"/>
</svg>
