<svg width="27" height="27" viewBox="0 0 27 27" fill="none" xmlns="http://www.w3.org/2000/svg">
<path d="M12.2529 17.9883V20.9956C12.2529 23.5017 11.2505 24.5042 8.74439 24.5042H5.73706C3.23096 24.5042 2.22852 23.5017 2.22852 20.9956V17.9883C2.22852 15.4822 3.23096 14.4797 5.73706 14.4797H8.74439C11.2505 14.4797 12.2529 15.4822 12.2529 17.9883Z" fill="white"/>
<path d="M18.3562 2.22766H9.49011C6.09294 2.22766 3.3418 4.97881 3.3418 8.37597V11.6952C3.3418 12.3078 3.84302 12.809 4.45562 12.809H9.46783C11.9294 12.809 13.9231 14.8027 13.9231 17.2643V22.2765C13.9231 22.8891 14.4244 23.3903 15.037 23.3903H18.3562C22.1988 23.3903 24.5045 21.0959 24.5045 17.242V8.37597C24.5045 4.97881 21.7533 2.22766 18.3562 2.22766ZM20.8957 11.1271C20.8957 11.5838 20.517 11.9625 20.0603 11.9625C19.6036 11.9625 19.2249 11.5838 19.2249 11.1271V8.67671L15.0704 12.8424C14.9033 13.0095 14.6917 13.0875 14.48 13.0875C14.2684 13.0875 14.0568 13.0095 13.8897 12.8424C13.5667 12.5194 13.5667 11.9848 13.8897 11.6618L18.0443 7.48491H15.5939C15.1261 7.48491 14.7585 7.11735 14.7585 6.64955C14.7585 6.19288 15.1261 5.81418 15.5939 5.81418H20.0603C20.1606 5.81418 20.2608 5.84759 20.3499 5.88101C20.3833 5.89214 20.4056 5.90328 20.4279 5.91442C20.4947 5.94784 20.5504 5.98125 20.6061 6.03694C20.6284 6.04808 20.6506 6.07036 20.6729 6.09263C20.7286 6.15946 20.7732 6.22629 20.8177 6.30426C20.8177 6.3154 20.8288 6.32654 20.8288 6.33767C20.8734 6.42678 20.8845 6.52702 20.8845 6.62727C20.8957 6.63841 20.8957 6.63841 20.8957 6.64955V11.1271Z" fill="white"/>
</svg>
