<svg width="24" height="24" viewBox="0 0 24 24" fill="none" xmlns="http://www.w3.org/2000/svg">
<path d="M17.31 2.5H6.16C3.73 2.5 1.75 4.48 1.75 6.91V13.41V13.61C1.75 16.05 3.73 18.02 6.16 18.02H10C10.55 18.02 11 18.47 11 19.02V19.99C11 20.54 10.55 20.99 10 20.99H7.58C7.17 20.99 6.83 21.33 6.83 21.74C6.83 22.15 7.16 22.5 7.58 22.5H15.93C16.34 22.5 16.68 22.16 16.68 21.75C16.68 21.34 16.34 21 15.93 21H13.51C12.96 21 12.51 20.55 12.51 20V19.03C12.51 18.48 12.96 18.03 13.51 18.03H17.32C19.76 18.03 21.73 16.05 21.73 13.62V13.42V6.92C21.72 4.48 19.74 2.5 17.31 2.5Z" fill="white"/>
</svg>
