<svg width="123" height="15" viewBox="0 0 123 15" fill="none" xmlns="http://www.w3.org/2000/svg">
<path d="M0 10.6344V3.47312C0.479095 3.39785 1.10648 3.33333 1.90497 3.33333C2.88598 3.33333 3.60462 3.54839 4.0609 3.93548C4.47155 4.27957 4.73391 4.80645 4.73391 5.45161C4.73391 6.10753 4.52859 6.62366 4.14075 7C3.60462 7.52688 2.7605 7.7957 1.7909 7.7957C1.49432 7.7957 1.22055 7.78495 0.992411 7.73118V10.6344H0ZM0.992411 4.15054V6.96774C1.20914 7.0215 1.48291 7.04301 1.81372 7.04301C3.01145 7.04301 3.7415 6.48387 3.7415 5.50538C3.7415 4.53763 3.01145 4.07527 1.92779 4.07527C1.49432 4.07527 1.16352 4.10753 0.992411 4.15054Z" fill="#898989"/>
<path d="M8.0857 5.32258C9.67128 5.32258 10.7435 6.4086 10.7435 7.98925C10.7435 9.91398 9.31766 10.7527 7.99445 10.7527C6.51154 10.7527 5.34802 9.72043 5.34802 8.07527C5.34802 6.34409 6.56857 5.32258 8.0857 5.32258ZM8.06289 6.03226C6.88797 6.03226 6.37465 7.06452 6.37465 8.04301C6.37465 9.1828 7.05907 10.043 8.04008 10.043C8.99827 10.043 9.71691 9.19355 9.71691 8.02151C9.71691 7.13978 9.24922 6.03226 8.06289 6.03226Z" fill="#898989"/>
<path d="M11.3024 5.43011H12.329L13.0705 8.07527C13.2188 8.65591 13.3671 9.19355 13.4697 9.73118H13.5039C13.6294 9.2043 13.8119 8.64516 13.9945 8.08602L14.8956 5.43011H15.7397L16.5953 8.03226C16.8006 8.65591 16.9603 9.2043 17.0858 9.73118H17.12C17.2112 9.2043 17.3595 8.65591 17.542 8.04301L18.3291 5.43011H19.3215L17.542 10.6344H16.6295L15.7854 8.15054C15.5914 7.56989 15.4317 7.05376 15.2949 6.44086H15.272C15.1352 7.06452 14.964 7.60215 14.7701 8.16129L13.8804 10.6344H12.9678L11.3024 5.43011Z" fill="#898989"/>
<path d="M24.655 8.2043H20.7766C20.7994 9.48387 21.655 10.0108 22.6702 10.0108C23.3888 10.0108 23.8337 9.89247 24.1987 9.74194L24.3813 10.4194C24.0276 10.5699 23.4117 10.7527 22.5333 10.7527C20.8337 10.7527 19.8184 9.68817 19.8184 8.11828C19.8184 6.54839 20.7994 5.32258 22.4078 5.32258C24.2216 5.32258 24.6892 6.80645 24.6892 7.76344C24.6892 7.95699 24.6778 8.09677 24.655 8.2043ZM20.788 7.52688H23.7196C23.7311 6.93548 23.4573 6 22.328 6C21.3014 6 20.8679 6.87097 20.788 7.52688Z" fill="#898989"/>
<path d="M25.9323 10.6344V7.05376C25.9323 6.44086 25.9209 5.91398 25.8867 5.43011H26.7651L26.8107 6.46237H26.8449C27.0959 5.76344 27.7118 5.32258 28.3848 5.32258C28.4875 5.32258 28.5674 5.33333 28.6586 5.34409V6.23656C28.556 6.21505 28.4533 6.21505 28.3164 6.21505C27.6092 6.21505 27.1073 6.70968 26.9704 7.41935C26.9476 7.54839 26.9362 7.70968 26.9362 7.86021V10.6344H25.9323Z" fill="#898989"/>
<path d="M33.9901 8.2043H30.1117C30.1345 9.48387 30.99 10.0108 32.0052 10.0108C32.7239 10.0108 33.1688 9.89247 33.5338 9.74194L33.7163 10.4194C33.3627 10.5699 32.7467 10.7527 31.8684 10.7527C30.1687 10.7527 29.1535 9.68817 29.1535 8.11828C29.1535 6.54839 30.1345 5.32258 31.7429 5.32258C33.5566 5.32258 34.0243 6.80645 34.0243 7.76344C34.0243 7.95699 34.0129 8.09677 33.9901 8.2043ZM30.1231 7.52688H33.0547C33.0661 6.93548 32.7923 6 31.663 6C30.6364 6 30.2029 6.87097 30.1231 7.52688Z" fill="#898989"/>
<path d="M39.0317 3H40.0241V9.29032C40.0241 9.75269 40.0469 10.2796 40.0697 10.6344H39.18L39.1344 9.73118H39.1001C38.8036 10.3118 38.142 10.7527 37.2408 10.7527C35.9062 10.7527 34.8681 9.68817 34.8681 8.10753C34.8567 6.37634 36.0088 5.32258 37.3435 5.32258C38.199 5.32258 38.7579 5.69892 39.0089 6.10753H39.0317V3ZM39.0317 8.45161V7.54839C39.0317 7.43011 39.0203 7.26882 38.9861 7.15054C38.8378 6.55914 38.2902 6.06452 37.5374 6.06452C36.4993 6.06452 35.8834 6.92473 35.8834 8.06452C35.8834 9.11828 36.4423 9.98925 37.5146 9.98925C38.1876 9.98925 38.8036 9.55914 38.9861 8.86021C39.0203 8.73118 39.0317 8.60215 39.0317 8.45161Z" fill="#898989"/>
<path d="M44.1234 9.29032V3H45.1158V6.26882H45.1386C45.4923 5.68817 46.131 5.32258 47.0208 5.32258C48.401 5.32258 49.3592 6.39785 49.3592 7.96774C49.3592 9.82796 48.1045 10.7527 46.8725 10.7527C46.074 10.7527 45.4352 10.4624 45.0132 9.78495H44.9903L44.9333 10.6344H44.0778C44.1006 10.2796 44.1234 9.75269 44.1234 9.29032ZM45.1158 7.62366V8.54839C45.1158 8.66667 45.1272 8.78495 45.1614 8.89247C45.344 9.54839 45.9371 10 46.6672 10C47.728 10 48.344 9.19355 48.344 8C48.344 6.95699 47.7737 6.06452 46.69 6.06452C46.017 6.06452 45.3782 6.51613 45.1729 7.22581C45.1386 7.34409 45.1158 7.47312 45.1158 7.62366Z" fill="#898989"/>
<path d="M49.8098 5.43011H50.9049L52.1026 8.50538C52.2395 8.84946 52.3764 9.25806 52.4676 9.56989H52.4905C52.5931 9.25806 52.7072 8.86021 52.8441 8.48387L53.9392 5.43011H55L53.4943 9.13978C52.7756 10.9247 52.2851 11.828 51.6007 12.3978C51.0988 12.7957 50.6197 12.957 50.3688 13L50.1178 12.2151C50.3688 12.1398 50.6996 11.9892 50.9961 11.7527C51.2699 11.5484 51.6007 11.1828 51.8403 10.6989C51.8859 10.6022 51.9201 10.5269 51.9201 10.4731C51.9201 10.4194 51.8973 10.3441 51.8403 10.2258L49.8098 5.43011Z" fill="#898989"/>
<path d="M91.5759 3C93.6963 3 95.0602 4.59502 95.0602 6.86878C95.0602 9.4819 93.4441 10.8846 91.4728 10.8846C89.4212 10.8846 88 9.31222 88 7.00453C88 4.58371 89.5129 3 91.5759 3ZM91.5415 3.80317C89.8797 3.80317 89.0544 5.319 89.0544 6.9819C89.0544 8.62217 89.9484 10.0814 91.5301 10.0814C93.1117 10.0814 94.0057 8.6448 94.0057 6.91403C94.0057 5.38688 93.2034 3.80317 91.5415 3.80317Z" fill="#898989"/>
<path d="M96.3261 13V7.0724C96.3261 6.37104 96.3032 5.80543 96.2802 5.28507H97.1742L97.2315 6.22398H97.2545C97.6556 5.55656 98.3204 5.17195 99.2258 5.17195C100.578 5.17195 101.587 6.29186 101.587 7.94344C101.587 9.91176 100.36 10.8846 99.0539 10.8846C98.3204 10.8846 97.6785 10.5679 97.3461 10.0249H97.3232V13H96.3261ZM97.3232 7.58145V8.53167C97.3232 8.67873 97.3347 8.81448 97.3691 8.93891C97.5524 9.62896 98.1599 10.1041 98.882 10.1041C99.9479 10.1041 100.567 9.24434 100.567 7.98869C100.567 6.90271 99.9822 5.9638 98.9163 5.9638C98.2287 5.9638 97.5754 6.43891 97.392 7.18552C97.3576 7.30995 97.3232 7.45701 97.3232 7.58145Z" fill="#898989"/>
<path d="M107.31 8.20362H103.413C103.436 9.54977 104.296 10.1041 105.316 10.1041C106.038 10.1041 106.485 9.97964 106.851 9.82127L107.035 10.5339C106.679 10.6923 106.061 10.8846 105.178 10.8846C103.47 10.8846 102.45 9.76471 102.45 8.11312C102.45 6.46154 103.436 5.17195 105.052 5.17195C106.874 5.17195 107.344 6.73303 107.344 7.73982C107.344 7.94344 107.333 8.0905 107.31 8.20362ZM103.424 7.49095H106.37C106.381 6.86878 106.106 5.88462 104.972 5.88462C103.94 5.88462 103.505 6.8009 103.424 7.49095Z" fill="#898989"/>
<path d="M108.593 10.7602V6.76697C108.593 6.19005 108.582 5.73756 108.547 5.28507H109.441L109.499 6.19005H109.522C109.797 5.681 110.439 5.17195 111.355 5.17195C112.123 5.17195 113.315 5.62443 113.315 7.50226V10.7602H112.307V7.60407C112.307 6.72172 111.974 5.98643 111.023 5.98643C110.37 5.98643 109.854 6.45023 109.671 7.00453C109.625 7.12896 109.602 7.29864 109.602 7.46833V10.7602H108.593Z" fill="#898989"/>
<path d="M118.974 8.36199H116.234L115.432 10.7602H114.401L117.037 3.13575H118.229L120.865 10.7602H119.799L118.974 8.36199ZM116.441 7.59276H118.779L118.011 5.39819C117.839 4.90045 117.724 4.44796 117.61 4.00679H117.587C117.472 4.44796 117.358 4.92308 117.197 5.38688L116.441 7.59276Z" fill="#898989"/>
<path d="M121.991 3.13575H123V10.7602H121.991V3.13575Z" fill="#898989"/>
<path d="M78.0093 6.13904C78.179 5.63378 78.2391 5.09896 78.1857 4.56931C78.1305 4.03967 77.9601 3.528 77.6863 3.06917C77.2816 2.37566 76.665 1.82621 75.9246 1.49944C75.1842 1.17202 74.3571 1.08668 73.564 1.25588C73.2057 0.857679 72.7652 0.539639 72.2721 0.32306C71.779 0.106482 71.2447 -0.00363328 70.705 9.14338e-05C69.8932 -0.00225717 69.1017 0.24961 68.4443 0.719426C67.7869 1.18924 67.2976 1.85277 67.0468 2.61446C66.5188 2.72181 66.02 2.93911 65.584 3.25184C65.1471 3.56579 64.7816 3.96435 64.5155 4.42855C64.1081 5.12123 63.9352 5.924 64.0218 6.72028C64.1065 7.51741 64.4459 8.26734 64.9908 8.86175C64.8212 9.36701 64.7611 9.90183 64.8145 10.4315C64.8714 10.9613 65.0429 11.4722 65.3139 11.9308C65.7186 12.6243 66.3353 13.1737 67.0756 13.5006C67.816 13.828 68.6431 13.9133 69.4361 13.7441C69.7945 14.1423 70.235 14.4604 70.7281 14.6769C71.2212 14.8935 71.7555 15.0036 72.2952 14.9999C73.1074 15.0025 73.8994 14.7499 74.5563 14.2787C75.2136 13.8076 75.7027 13.1432 75.9534 12.3808C76.4814 12.2735 76.9801 12.0561 77.4162 11.7434C77.8531 11.4295 78.2137 11.0317 78.4847 10.5675C78.8934 9.87397 79.0642 9.07289 78.9784 8.27577C78.8945 7.47981 78.555 6.73114 78.0093 6.13904ZM72.3289 14.0162C71.5738 14.0162 70.9847 13.7868 70.4765 13.3653C70.5006 13.3511 70.5383 13.3321 70.5671 13.3131L73.5921 11.5892C73.668 11.5473 73.7307 11.4854 73.7732 11.4105C73.8159 11.3362 73.8385 11.2523 73.839 11.1669V6.9591L75.1174 7.68979C75.1174 7.68979 75.131 7.69928 75.1359 7.70403C75.1359 7.70877 75.1407 7.71826 75.1455 7.723V11.2096C75.1455 12.7888 73.8109 14.0209 72.3289 14.0209V14.0162ZM66.1787 11.439C65.8444 10.8701 65.7251 10.2027 65.8421 9.55528C65.8653 9.56951 65.903 9.59245 65.9318 9.60668L68.9576 11.3306C69.0328 11.3732 69.1178 11.3961 69.2045 11.397C69.2903 11.397 69.3752 11.3733 69.4514 11.3314L73.1464 9.2271V10.7083C73.1464 10.7122 73.1368 10.7217 73.1328 10.7264L70.0734 12.4702C69.4188 12.8412 68.6421 12.9421 67.9124 12.7509C67.5513 12.6559 67.2127 12.4915 66.916 12.2672C66.6193 12.0429 66.3704 11.763 66.1835 11.4437L66.1787 11.439ZM65.3804 4.92042C65.7125 4.35054 66.2375 3.91432 66.8632 3.68836V7.23904C66.8632 7.32365 66.8865 7.40827 66.929 7.48339C66.9722 7.55773 67.0331 7.61862 67.1101 7.66132L70.8052 9.76484L69.5275 10.4963C69.5275 10.4963 69.5131 10.5011 69.5083 10.5058H69.4842L66.4256 8.76211C65.7724 8.38922 65.2957 7.77614 65.0999 7.05715C64.9047 6.3378 65.0055 5.57151 65.3804 4.92517V4.92042ZM75.8909 7.33393L72.1958 5.23042L73.4735 4.50288C73.4735 4.50288 73.4879 4.49893 73.4927 4.49418H73.5168L76.5754 6.2371C77.0438 6.50413 77.4256 6.89705 77.6762 7.37003C77.9268 7.84301 78.036 8.37655 77.9909 8.90841C77.9442 9.43982 77.7449 9.94706 77.4162 10.3706C77.0876 10.7976 76.6467 11.1203 76.1386 11.3037V7.75068C76.1379 7.66522 76.115 7.58136 76.072 7.50712C76.0295 7.43245 75.9668 7.37087 75.8909 7.32919V7.33393ZM77.1645 5.44077C77.1645 5.44077 77.1028 5.40281 77.074 5.38937L74.0482 3.66464C73.9731 3.62181 73.888 3.59925 73.8013 3.59925C73.7146 3.59925 73.6295 3.62181 73.5544 3.66464L69.8594 5.76816V4.28858C69.8594 4.28383 69.8682 4.27434 69.873 4.2696L72.9324 2.52668C73.4001 2.25899 73.9355 2.12868 74.4757 2.1511C75.0158 2.17351 75.5383 2.34772 75.9815 2.65321C76.4242 2.9601 76.7698 3.3844 76.9784 3.87701C77.1869 4.36962 77.2497 4.91041 77.1597 5.43681L77.1645 5.44077ZM69.1604 8.0417L67.8828 7.31021C67.8828 7.31021 67.8691 7.30072 67.8643 7.29597C67.863 7.28911 67.8597 7.28279 67.8547 7.27779V3.79038C67.8547 3.25659 68.011 2.73704 68.3012 2.28233C68.5908 1.83069 69.0063 1.47101 69.4979 1.24639C69.9886 1.02132 70.5335 0.936923 71.0705 1.00282C71.6075 1.0732 72.1149 1.2883 72.5285 1.63071C72.5044 1.64495 72.4667 1.66393 72.4379 1.68211L69.4129 3.40684C69.337 3.44852 69.2743 3.5101 69.2318 3.58477C69.1888 3.65901 69.1659 3.74287 69.1652 3.82833V8.03695L69.1604 8.0417ZM69.8537 6.56528L71.4969 5.62819L73.14 6.56528V8.43947L71.4969 9.37735L69.8537 8.43947V6.56528Z" fill="#898989"/>
</svg>
