<svg width="21" height="21" viewBox="0 0 21 21" fill="none" xmlns="http://www.w3.org/2000/svg">
<path d="M2.42412 8.75006C2.04787 8.75006 1.75037 8.45256 1.75037 8.07631V6.05506C1.75037 3.68381 3.68412 1.75006 6.05537 1.75006H8.07662C8.45287 1.75006 8.75037 2.04756 8.75037 2.42381C8.75037 2.80006 8.45287 3.09756 8.07662 3.09756H6.05537C4.41912 3.09756 3.09787 4.42756 3.09787 6.05506V8.07631C3.09787 8.45256 2.79162 8.75006 2.42412 8.75006Z" fill="white"/>
<path d="M18.5765 8.75006C18.209 8.75006 17.9027 8.45256 17.9027 8.07631V6.05506C17.9027 4.41881 16.5727 3.09756 14.9452 3.09756H12.924C12.5477 3.09756 12.2502 2.79131 12.2502 2.42381C12.2502 2.05631 12.5477 1.75006 12.924 1.75006H14.9452C17.3165 1.75006 19.2502 3.68381 19.2502 6.05506V8.07631C19.2502 8.45256 18.9527 8.75006 18.5765 8.75006Z" fill="white"/>
<path d="M14.946 19.2498H13.7298C13.3623 19.2498 13.056 18.9523 13.056 18.5761C13.056 18.2086 13.3535 17.9023 13.7298 17.9023H14.946C16.5823 17.9023 17.9035 16.5723 17.9035 14.9448V13.7373C17.9035 13.3698 18.201 13.0636 18.5773 13.0636C18.9448 13.0636 19.251 13.3611 19.251 13.7373V14.9448C19.251 17.3161 17.3173 19.2498 14.946 19.2498Z" fill="white"/>
<path d="M8.07662 19.2499H6.05537C3.68412 19.2499 1.75037 17.3161 1.75037 14.9449V12.9236C1.75037 12.5474 2.04787 12.2499 2.42412 12.2499C2.80037 12.2499 3.09787 12.5474 3.09787 12.9236V14.9449C3.09787 16.5811 4.42787 17.9024 6.05537 17.9024H8.07662C8.44412 17.9024 8.75037 18.1999 8.75037 18.5761C8.75037 18.9524 8.45287 19.2499 8.07662 19.2499Z" fill="white"/>
<path d="M16.1529 9.82642H14.9629H6.03794H4.84794C4.47169 9.82642 4.17419 10.1327 4.17419 10.5002C4.17419 10.8677 4.47169 11.1739 4.84794 11.1739H6.03794H14.9629H16.1529C16.5292 11.1739 16.8267 10.8677 16.8267 10.5002C16.8267 10.1327 16.5292 9.82642 16.1529 9.82642Z" fill="white"/>
<path d="M6.03772 12.1975V12.4862C6.03772 13.9387 7.21022 15.1112 8.66272 15.1112H12.3377C13.7902 15.1112 14.9627 13.9387 14.9627 12.4862V12.1975C14.9627 12.0925 14.884 12.0137 14.779 12.0137H6.22147C6.11647 12.0137 6.03772 12.0925 6.03772 12.1975Z" fill="white"/>
<path d="M6.03772 8.80236V8.51361C6.03772 7.06111 7.21022 5.88861 8.66272 5.88861H12.3377C13.7902 5.88861 14.9627 7.06111 14.9627 8.51361V8.80236C14.9627 8.90736 14.884 8.98611 14.779 8.98611H6.22147C6.11647 8.98611 6.03772 8.90736 6.03772 8.80236Z" fill="white"/>
</svg>
