<svg width="16" height="16" viewBox="0 0 16 16" fill="none" xmlns="http://www.w3.org/2000/svg">
<path d="M12.6264 2.33333H3.37305C3.09971 2.33333 2.87305 2.10666 2.87305 1.83333C2.87305 1.55999 3.09971 1.33333 3.37305 1.33333H12.6264C12.8997 1.33333 13.1264 1.55999 13.1264 1.83333C13.1264 2.10666 12.8997 2.33333 12.6264 2.33333Z" fill="white"/>
<path d="M12.6264 14.6667H3.37305C3.09971 14.6667 2.87305 14.44 2.87305 14.1667C2.87305 13.8933 3.09971 13.6667 3.37305 13.6667H12.6264C12.8997 13.6667 13.1264 13.8933 13.1264 14.1667C13.1264 14.44 12.8997 14.6667 12.6264 14.6667Z" fill="white"/>
<path d="M1.83203 5.33333V10.6667C1.83203 11.7733 2.72536 12.6667 3.83203 12.6667H12.1654C13.272 12.6667 14.1654 11.7733 14.1654 10.6667V5.33333C14.1654 4.22666 13.272 3.33333 12.1654 3.33333H3.83203C2.72536 3.33333 1.83203 4.22666 1.83203 5.33333Z" fill="white"/>
</svg>
